<?xml version="1.0" encoding="UTF-8"?>
<svg id="Layer_2" data-name="Layer 2" xmlns="http://www.w3.org/2000/svg" viewBox="0 0 102.77 149.92">
  <defs>
    <style>
      .cls-1 {
        fill: #e72c4b;
      }

      .cls-2 {
        fill: #d7c38e;
      }

      .cls-3 {
        fill: #21c194;
      }

      .cls-4 {
        fill: #c4d458;
      }
    </style>
  </defs>
  <g id="Layer_1-2" data-name="Layer 1">
    <g>
      <path class="cls-2" d="M70.2,74.62s-13.4,6.9-22.1-5.8c0,0-16.8,9.2-24.4-6.3,0,0-4.6,2-9.9,1.7l16.7,85.7,51-67.7c-5.8-2.1-10.6-6.2-11.3-7.6Z"/>
      <path class="cls-4" d="M85.8,12.22s1.4-1.5,3.5-3.2c3.2-2.7,7.9-6,11.3-5.6l-2.4-3.2s-6.2,3.4-10.5,7.2c-1.3,1.2-2.4,2.4-3.1,3.5l1.2,1.3Z"/>
      <path class="cls-3" d="M100,74.52c-4.5,9.8-12.2,10-18.6,7.7-5.7-2.1-10.5-6.2-11.2-7.6,0,0-13.4,6.9-22.1-5.8,0,0-16.8,9.2-24.4-6.3,0,0-4.6,2-9.9,1.7-4.8-.2-10.1-2.4-12.8-9.8-5.5-15.5,13.4-18.7,13.4-18.7,0,0,9.7-41.9,48.9-32.4,2,.5,3.8,1,5.5,1.6-2.8,3.8-6.5,11.2-.9,18.9,0,0,10.6,14,23.7,1.8,5.8,13.3,3.1,27.2,3.1,27.2,0,0,13.8,3.3,5.3,21.7Z"/>
      <path class="cls-1" d="M31.7,44.52c.4,1,0,2.1-1,2.5l-10.8,4.6c-1,.4-2.1,0-2.5-1s0-2.1,1-2.5l10.8-4.6c1-.4,2.1,0,2.5,1Zm17.4-18.9c-.2-1-1.2-1.7-2.2-1.5s-1.7,1.2-1.5,2.2l2.4,11.5c.2,1,1.2,1.7,2.2,1.5s1.7-1.2,1.5-2.2l-2.4-11.5Zm27.8,15.5c-.4-1-1.5-1.4-2.5-1l-10.8,4.6c-1,.4-1.4,1.5-1,2.5s1.5,1.4,2.5,1l10.8-4.6c.9-.4,1.4-1.5,1-2.5Zm4.3,25.1l-9.8-6.5c-.9-.6-2-.3-2.6,.5-.6,.9-.3,2,.5,2.6l9.8,6.5c.9,.6,2,.3,2.6-.5s.3-2-.5-2.6ZM48.6,11.22c-.4-1-1.5-1.4-2.5-1l-10.8,4.6c-1,.4-1.4,1.5-1,2.5s1.5,1.4,2.5,1l10.8-4.6c1-.4,1.4-1.5,1-2.5Zm41.3-1.7c-.2-.2-.4-.3-.6-.5-2.1,1.7-3.5,3.2-3.5,3.2l-1.1-1.3c.7-1.1,1.8-2.3,3.1-3.5-.5-.6-.9-1.2-1.2-1.8-1.5-3-5.2-7.6-12.7-4.7-2,.8-3.7,2.1-5,3.9,0,.1-.1,.1-.1,.2-2.8,3.8-6.5,11.2-.9,18.9,0,0,10.6,14,23.7,1.8,.8-.7,1.5-1.5,2.3-2.3-.1-.1,5.6-6.7-4-13.9Z"/>
    </g>
  </g>
</svg>