<?xml version="1.0" encoding="UTF-8"?>
<svg id="Layer_2" data-name="Layer 2" xmlns="http://www.w3.org/2000/svg" viewBox="0 0 150 150">
  <defs>
    <style>
      .cls-1 {
        fill: #f75587;
      }

      .cls-2 {
        fill: #f7f4f2;
      }

      .cls-3 {
        fill: #f5b87f;
      }

      .cls-4 {
        fill: #22b2b2;
      }

      .cls-5 {
        fill: #f4e962;
      }

      .cls-6 {
        fill: #efabe6;
      }
    </style>
  </defs>
  <g id="Layer_1-2" data-name="Layer 1">
    <g>
      <path class="cls-3" d="M75,0C33.6,0,0,33.6,0,75s33.6,75,75,75,75-33.6,75-75S116.5,0,75,0Zm-.2,102.1c-14.6,0-26.5-11.8-26.5-26.5s11.8-26.5,26.5-26.5,26.5,11.8,26.5,26.5-11.8,26.5-26.5,26.5Z"/>
      <path class="cls-1" d="M140,78.7c-3-4.2-1.9-8.8-.5-12.2,1.4-3.5,1.6-9.1,1.6-9.1,.6-4.9-6-9.1-11.6-12.6s-6.6-15.7-6.6-15.7c0,0,.8-5.5-8.2-6.9-8.9-1.4-10.5-6.4-10.5-6.4,0,0-1.3-7.5-15.7-6-14.4,1.6-18.5-1.7-18.5-1.7-12.9-7.7-22.4,5.6-26.4,9.9-3.9,4.2-17.3,8.9-17.3,8.9-11.1,2.4-10.5,14-10.5,14-.8,9.7-5.2,17.3-5.2,17.3,0,0-9.6,7.8-5,18.7,4.6,10.8,1.9,13.7,1.9,13.7,0,0-4.1,11.8,5.6,15.8,9.7,4.1,9.1,14.1,9.1,14.1-.2,8.5,13.2,10.2,13.2,10.2,0,0,15.7,4.2,23.7,11.3s19.1,1.9,19.1,1.9c0,0,9.6-6.1,18.8-3.3,9.3,2.8,12.9-3.1,14.9-8.8,2-5.6,10.5-9.1,13.3-10.2s6.3-4.7,6.3-4.7c1.7-2.7,.9-10.2,.9-10.2-.6-3.3,1.6-8.5,4.2-9.9,2.7-1.4,5.3-6.4,5.3-6.4,0,0,1.1-7.5-1.9-11.7Zm-65.2,23.4c-14.6,0-26.5-11.8-26.5-26.5s11.8-26.5,26.5-26.5,26.5,11.8,26.5,26.5-11.8,26.5-26.5,26.5Z"/>
      <path class="cls-2" d="M97.4,41.2c.3,.9-.2,1.9-1.1,2.2l-9.2,3.2c-.9,.3-1.9-.2-2.2-1.1h0c-.3-.9,.2-1.9,1.1-2.2l9.2-3.2c.9-.3,1.9,.2,2.2,1.1Zm31.9,45.7l-9.3-3c-.9-.3-1.9,.2-2.2,1.1s.2,1.9,1.1,2.2l9.3,3c.9,.3,1.9-.2,2.2-1.1,.3-1-.2-1.9-1.1-2.2ZM47.7,53l-9.5-1.9c-.9-.2-1.8,.4-2,1.4s.4,1.8,1.4,2l9.5,1.9c.9,.2,1.8-.4,2-1.4,.1-.9-.5-1.8-1.4-2Zm22,70.8c-.5-.8-1.5-1.1-2.3-.7s-1.1,1.5-.7,2.3l4.7,8.5c.5,.8,1.5,1.1,2.3,.7,.8-.5,1.1-1.5,.7-2.3l-4.7-8.5Z"/>
      <path class="cls-4" d="M37.4,122.4c.2,.9-.3,1.9-1.3,2.1-.9,.2-1.9-.3-2.1-1.3l-2.3-9.4c-.2-.9,.3-1.9,1.3-2.1,.9-.2,1.9,.3,2.1,1.3l2.3,9.4ZM15.8,63.5c-.9-.1-1.8,.5-1.9,1.5l-1.3,9.6c-.1,.9,.5,1.8,1.5,1.9s1.8-.5,1.9-1.5l1.3-9.6c.1-.9-.6-1.7-1.5-1.9Zm77.8,42.6c-.8-.4-1.9-.1-2.3,.8l-4.4,8.7c-.4,.8-.1,1.9,.8,2.3,.8,.4,1.9,.1,2.3-.8l4.4-8.7c.3-.8,0-1.9-.8-2.3Zm19.7-74c-.8-.4-1.9-.1-2.3,.7l-4.6,8.6c-.4,.8-.1,1.9,.7,2.3s1.9,.1,2.3-.7l4.6-8.6c.5-.8,.1-1.9-.7-2.3Zm-54.7-.9c-.2-.9-1.2-1.5-2.1-1.3-.9,.2-1.5,1.2-1.3,2.1l2.3,9.4c.2,.9,1.2,1.5,2.1,1.3s1.5-1.2,1.3-2.1l-2.3-9.4Z"/>
      <path class="cls-6" d="M32.5,38.6l-9.6-1.5c-.9-.1-1.6-1-1.4-2s1-1.6,2-1.4l9.6,1.5c.9,.1,1.6,1,1.4,2s-1,1.6-2,1.4Zm4.3,46.2c-.6-.7-1.7-.9-2.4-.3s-.9,1.7-.3,2.4l6,7.7c.6,.7,1.7,.9,2.4,.3,.7-.6,.9-1.7,.3-2.4l-6-7.7Zm80,27.7l-2.3-9.4c-.2-.9-1.2-1.5-2.1-1.3-.9,.2-1.5,1.2-1.3,2.1l2.3,9.4c.2,.9,1.2,1.5,2.1,1.3,1-.2,1.5-1.2,1.3-2.1Zm-3.1-52.6c-.6-.7-1.7-.7-2.4-.1l-7.1,6.6c-.7,.6-.7,1.7-.1,2.4,.6,.7,1.7,.7,2.4,.1l7.1-6.6c.8-.6,.8-1.7,.1-2.4ZM74.5,20.7c-.5-.8-1.5-1.1-2.3-.7-.8,.5-1.1,1.5-.7,2.3l4.7,8.5c.5,.8,1.5,1.1,2.3,.7h0c.8-.5,1.1-1.5,.7-2.3l-4.7-8.5Z"/>
      <path class="cls-5" d="M49.3,21.8l-1.2,9.7c-.1,.9-1,1.6-1.9,1.5s-1.6-1-1.5-1.9l1.2-9.7c.1-.9,1-1.6,1.9-1.5,.9,.1,1.6,1,1.5,1.9ZM22.9,90.2c-.9-.4-1.9-.1-2.3,.8l-4.3,8.7c-.4,.9-.1,1.9,.8,2.3,.9,.4,1.9,.1,2.3-.8l4.3-8.7c.4-.8,0-1.9-.8-2.3Zm36.2,13.3c-.9-.4-1.9,0-2.3,.9l-4,8.9c-.4,.9,0,1.9,.9,2.3,.9,.4,1.9,0,2.3-.9l4-8.9c.4-.9,0-2-.9-2.3Zm41.5,23.9l-8.9,4c-.9,.4-1.3,1.4-.9,2.3s1.4,1.3,2.3,.9l8.9-4c.9-.4,1.3-1.4,.9-2.3-.4-.9-1.4-1.3-2.3-.9Zm.5-106.4c.9,.1,1.8-.7,1.8-1.6,.1-.9-.7-1.8-1.6-1.8l-9.7-.6c-.9-.1-1.8,.7-1.8,1.6-.1,.9,.7,1.8,1.6,1.8l9.7,.6Zm31.1,32c0-.9-.9-1.7-1.8-1.6-.9,0-1.7,.9-1.6,1.8l.5,9.7c0,.9,.9,1.7,1.8,1.6,.9,0,1.7-.9,1.6-1.8l-.5-9.7Z"/>
    </g>
  </g>
</svg>