<?xml version="1.0" encoding="UTF-8"?>
<svg id="Layer_2" data-name="Layer 2" xmlns="http://www.w3.org/2000/svg" viewBox="0 0 48.42 56.69">
  <defs>
    <style>
      .cls-1 {
        fill: #f75587;
      }

      .cls-2 {
        fill: #f21645;
      }

      .cls-3 {
        fill: #a7cc89;
      }

      .cls-4 {
        fill: #2f2b31;
      }

      .cls-5 {
        fill: #ba9a5a;
      }

      .cls-6 {
        fill: #ded16d;
      }

      .cls-7 {
        fill: #f7f4f2;
      }

      .cls-8 {
        fill: #0cc1bc;
      }

      .cls-9 {
        fill: #e72c4b;
      }

      .cls-10 {
        fill: #d7c38e;
      }

      .cls-11 {
        fill: #e677ae;
      }

      .cls-12 {
        fill: #86c433;
      }

      .cls-13 {
        fill: #f5b87f;
      }

      .cls-14 {
        fill: #22b2b2;
      }

      .cls-15 {
        fill: #c4cbb7;
      }

      .cls-16 {
        fill: #e43726;
      }

      .cls-17 {
        fill: #e1e0e2;
      }

      .cls-18 {
        fill: #3eb64b;
      }

      .cls-19 {
        fill: #86c4d8;
      }

      .cls-20 {
        fill: #f25779;
      }

      .cls-21 {
        fill: #b39633;
      }

      .cls-22 {
        fill: #21c194;
      }

      .cls-23 {
        fill: #c4d458;
      }

      .cls-24 {
        fill: #a592c5;
      }

      .cls-25 {
        fill: #f4e962;
      }

      .cls-26 {
        fill: #070707;
      }

      .cls-27 {
        fill: #e0b155;
      }

      .cls-28 {
        fill: #f37f75;
      }

      .cls-29 {
        fill: #7797ce;
      }

      .cls-30 {
        fill: #efabe6;
      }
    </style>
  </defs>
  <g id="Layer_1-2" data-name="Layer 1">
    <g>
      <g>
        <path d="M18.4,19.04c1.03,1.47,1.64,3.25,1.64,5.14,0,2.95-1.47,5.6-3.75,7.32l.48,.51c.16,.17,.15,.44-.01,.6-.17,.16-.44,.15-.6-.01l-.57-.6c-1.59,.99-3.5,1.58-5.56,1.58s-3.84-.55-5.4-1.48l-.64,.68c-.16,.17-.43,.17-.6,.01s-.17-.43-.01-.6l.53-.57c-2.37-1.71-3.9-4.4-3.9-7.43,0-1.86,.59-3.59,1.58-5.05-.47-.32-.72-.65-.72-1.03,0-.98,1.86-1.83,4.61-2.27,1.32-.21,2.85-.33,4.46-.33,1.74,0,3.35,.13,4.73,.39,2.61,.45,4.36,1.28,4.36,2.23-.01,.31-.23,.63-.61,.92Z"/>
        <path class="cls-21" d="M5.31,17.43c0,.51-.63,.92-1.39,.92s-1.39-.41-1.39-.92,.63-.92,1.39-.92,1.39,.41,1.39,.92Zm10.4-1.06c-.25,0-.49,.04-.69,.11-.21-.12-.52-.2-.86-.2-.31,0-.6,.07-.82,.17-.23-.23-.68-.39-1.2-.39-.56,0-1.03,.19-1.24,.44-.15-.32-.67-.57-1.28-.57-.73,0-1.32,.35-1.32,.78,0,.12,.05,.24,.15,.35-.15,.01-.29,.03-.43,.07,.01-.05,.03-.11,.03-.16,0-.45-.63-.82-1.42-.82s-1.42,.36-1.42,.82,.63,.82,1.42,.82c.24,0,.45-.03,.65-.09v.07c0,.39,.59,.71,1.32,.71s1.32-.32,1.32-.71c0-.11-.04-.2-.12-.28,.45-.04,.84-.21,1.03-.44,.03,.05,.07,.11,.11,.15-.31,.12-.51,.31-.51,.52,0,.36,.56,.64,1.24,.64s1.24-.29,1.24-.64c0-.08-.03-.16-.08-.23,.12-.04,.24-.09,.33-.15,.21,.17,.57,.29,.99,.29,.2,0,.4-.03,.56-.08,.24,.15,.59,.25,.98,.25,.71,0,1.28-.32,1.28-.71,.03-.39-.55-.71-1.27-.71Z"/>
      </g>
      <g>
        <path class="cls-11" d="M5.15,9.53c-.24-4.11,2.68-7.82,6.83-8.48s8.33,2.15,9.2,6.35c.17-.16,.38-.27,.62-.31,.1-.02,.18-.01,.28-.01C21.06,2.46,16.58-.64,11.83,.11S3.96,4.96,4.2,9.53c.08-.03,.16-.04,.24-.05,.24-.02,.49-.01,.71,.05Z"/>
        <path class="cls-28" d="M11.98,1.06c-4.16,.66-7.07,4.36-6.83,8.48h0c.14-.55,.52-.98,1.05-1.15,.31-3.13,2.69-5.79,5.96-6.3,3.06-.48,5.98,1.07,7.37,3.66,.8,.07,1.47,.72,1.61,1.6l.02,.14s.04-.04,.06-.06C20.31,3.2,16.27,.38,11.98,1.06Z"/>
        <path class="cls-6" d="M12.14,2.06c-3.26,.52-5.65,3.17-5.96,6.3,.08-.03,.16-.04,.24-.05,.26-.04,.49-.01,.72,.07,.3-2.69,2.35-4.93,5.15-5.37,2.56-.4,5,.83,6.26,2.95,.16-.11,.37-.17,.57-.21,.13-.02,.26-.02,.39-.01-1.39-2.6-4.31-4.16-7.37-3.67Z"/>
        <path class="cls-3" d="M12.29,3.01c-2.8,.44-4.85,2.7-5.15,5.37,.38,.12,.7,.4,.91,.77,.03-.04,.07-.08,.1-.11,0-2.46,1.8-4.61,4.31-5.01,2.26-.36,4.39,.81,5.37,2.76,.16-.35,.41-.65,.72-.85-1.25-2.1-3.69-3.34-6.25-2.93Z"/>
        <path class="cls-19" d="M12.45,4.03c-2.51,.4-4.3,2.55-4.31,5.01,.18-.19,.44-.33,.71-.37,.13-.02,.24-.02,.36,0,.18-1.78,1.55-3.29,3.4-3.59,2.03-.32,3.93,.92,4.51,2.83,.19-.03,.39-.03,.58,0v-.05c-.07-.38-.01-.75,.12-1.07-.98-1.94-3.12-3.12-5.37-2.76Z"/>
        <path class="cls-29" d="M12.62,5.07c-1.86,.29-3.22,1.81-3.4,3.59,.3,.05,.59,.2,.81,.43-.02-1.57,1.12-2.97,2.72-3.22s3.21,.77,3.62,2.36c.2-.16,.46-.29,.75-.33h0c-.56-1.91-2.47-3.15-4.5-2.83Z"/>
        <path class="cls-24" d="M12.74,5.89c-1.6,.25-2.74,1.65-2.72,3.22,.1,.12,.2,.25,.28,.4,.23-.2,.52-.36,.84-.49,.04-1.01,.77-1.86,1.8-2.02s1.93,.4,2.3,1.28c.36-.02,.71,.02,1.02,.12,.04-.04,.08-.1,.14-.14-.45-1.59-2-2.62-3.65-2.36Z"/>
        <path class="cls-15" d="M23.73,8.17c-.16,.03-.32,.07-.45,.14v-.03c-.11-.66-.61-1.13-1.19-1.19-.08,0-.18,0-.28,.01-.24,.04-.45,.15-.62,.31-.01,.02-.04,.04-.06,.06l-.02-.14c-.14-.88-.82-1.53-1.61-1.6-.13-.01-.26,0-.39,.01-.21,.03-.39,.1-.57,.21-.33,.2-.58,.49-.72,.85-.13,.32-.19,.69-.13,1.07v.05c-.18-.04-.38-.04-.57,0h0c-.29,.05-.55,.17-.75,.33-.04,.04-.1,.08-.14,.14-.31-.1-.66-.13-1.02-.12-.11,0-.23,.02-.34,.04-.16,.03-.3,.06-.44,.1-.25-.32-.65-.5-1.09-.44s-.81,.39-.92,.8c-.18,0-.38,.01-.57,.04-.26,.04-.49,.11-.72,.2-.32,.13-.59,.29-.84,.49-.07-.15-.16-.29-.28-.4-.22-.23-.5-.38-.81-.43-.12-.01-.25-.01-.36,0-.27,.04-.53,.18-.71,.37-.03,.04-.07,.08-.1,.11-.2-.36-.53-.64-.91-.77-.23-.08-.48-.11-.72-.07-.08,.01-.16,.03-.24,.05-.52,.16-.9,.62-1.05,1.15h0c-.22-.06-.47-.07-.71-.04-.08,.01-.16,.03-.24,.05-.78,.24-1.3,.99-1.18,1.79,.02,.11,.05,.22,.09,.33-.85,.54-1.35,1.44-1.2,2.35,.21,1.33,1.68,2.2,3.26,1.95,.35-.06,.68-.16,.97-.3,.34,.16,.76,.22,1.21,.15,.56-.09,1.03-.36,1.28-.73,.35,.24,.78,.37,1.23,.3,.58-.09,1.06-.48,1.27-1,.46,.19,.99,.27,1.55,.18,.51-.08,.97-.28,1.33-.59,.5,.38,1.17,.57,1.86,.46,.82-.13,1.47-.64,1.82-1.32,.17,.04,.37,.06,.58,.02,.26-.04,.49-.14,.66-.28,.59,.38,1.4,.57,2.27,.43,1.17-.18,2.07-.89,2.37-1.72,.22,.05,.47,.06,.71,.02,.99-.16,1.69-1.05,1.54-2s-1.04-1.57-2.04-1.42ZM7.89,13.36s-.05,0-.07-.02c.02,0,.01-.02,.03-.02s.03,0,.05,0c-.02,0-.01,.02-.01,.03Z"/>
      </g>
      <g>
        <path class="cls-12" d="M20.18,11.34c4,3.05,4.78,8.8,1.72,12.81s-8.8,4.78-12.81,1.72l-1.07,1.41c4.81,3.67,11.69,2.74,15.36-2.07,3.67-4.81,2.75-11.68-2.05-15.36,0,0-1.14,1.5-1.14,1.5Z"/>
        <path class="cls-2" d="M19.86,11.67l-.46,.6,.02,.02c.26,.2,.29,.56,.11,.8-.09,.12-.22,.19-.35,.21,.23,.3,.24,.72,0,1.03s-.64,.41-1,.27c.02,.14-.01,.28-.11,.41-.2,.26-.56,.29-.8,.11l-.02-.02-7.93,10.39,.02,.02c3.81,2.91,9.26,2.18,12.17-1.64s2.18-9.26-1.64-12.17t-.03-.04Z"/>
        <path class="cls-26" d="M19.27,22.07s1.63,.16,1.1,.84-1.1-.84-1.1-.84Zm-1.84,.58c.73-.45-.73-1.18-.73-1.18,0,0,0,1.64,.73,1.18Zm-.93,2.55c.83-.22-.36-1.34-.36-1.34,0,0-.46,1.56,.36,1.34Zm-2.08-1.88c.84,.15,.23-1.37,.23-1.37,0,0-1.08,1.22-.23,1.37Zm-1.97,2.12c.8,.3,.48-1.31,.48-1.31,0,0-1.28,1.01-.48,1.31Zm5.64-5.7s1.09,1.22,1.34,.39c.22-.82-1.34-.39-1.34-.39Zm2.15-1.18s1.39,.86,1.39,0c0-.85-1.39,0-1.39,0Zm-.97-1.5c-.36-.78-1.26,.59-1.26,.59,0,0,1.61,.18,1.26-.59Zm.38-1.66s1.63-.12,1.13-.81c-.48-.7-1.13,.81-1.13,.81Z"/>
      </g>
      <g>
        <path class="cls-10" d="M35.65,18.51s-3.01,1.55-4.97-1.3c0,0-3.78,2.07-5.49-1.42,0,0-1.03,.45-2.23,.38l3.75,19.27,11.47-15.22c-1.3-.47-2.38-1.39-2.54-1.71Z"/>
        <path class="cls-23" d="M39.16,4.48s.31-.34,.79-.72c.72-.61,1.78-1.35,2.54-1.26l-.54-.72s-1.39,.76-2.36,1.62c-.29,.27-.54,.54-.7,.79l.27,.29Z"/>
        <path class="cls-22" d="M42.35,18.49c-1.01,2.2-2.74,2.25-4.18,1.73-1.28-.47-2.36-1.39-2.52-1.71,0,0-3.01,1.55-4.97-1.3,0,0-3.78,2.07-5.49-1.42,0,0-1.03,.45-2.23,.38-1.08-.04-2.27-.54-2.88-2.2-1.24-3.48,3.01-4.2,3.01-4.2,0,0,2.18-9.42,10.99-7.28,.45,.11,.85,.22,1.24,.36-.63,.85-1.46,2.52-.2,4.25,0,0,2.38,3.15,5.33,.4,1.3,2.99,.7,6.12,.7,6.12,0,0,3.1,.74,1.19,4.88Z"/>
        <path class="cls-9" d="M27,11.75c.09,.22,0,.47-.22,.56l-2.43,1.03c-.22,.09-.47,0-.56-.22s0-.47,.22-.56l2.43-1.03c.22-.09,.47,0,.56,.22Zm3.91-4.25c-.04-.22-.27-.38-.49-.34s-.38,.27-.34,.49l.54,2.59c.04,.22,.27,.38,.49,.34s.38-.27,.34-.49l-.54-2.59Zm6.25,3.48c-.09-.22-.34-.31-.56-.22l-2.43,1.03c-.22,.09-.31,.34-.22,.56s.34,.31,.56,.22l2.43-1.03c.2-.09,.31-.34,.22-.56Zm.97,5.64l-2.2-1.46c-.2-.13-.45-.07-.58,.11-.13,.2-.07,.45,.11,.58l2.2,1.46c.2,.13,.45,.07,.58-.11s.07-.45-.11-.58Zm-7.33-12.37c-.09-.22-.34-.31-.56-.22l-2.43,1.03c-.22,.09-.31,.34-.22,.56s.34,.31,.56,.22l2.43-1.03c.22-.09,.31-.34,.22-.56Zm9.29-.38s-.09-.07-.13-.11c-.47,.38-.79,.72-.79,.72l-.25-.29c.16-.25,.4-.52,.7-.79-.11-.13-.2-.27-.27-.4-.34-.67-1.17-1.71-2.86-1.06-.45,.18-.83,.47-1.12,.88,0,.02-.02,.02-.02,.04-.63,.85-1.46,2.52-.2,4.25,0,0,2.38,3.15,5.33,.4,.18-.16,.34-.34,.52-.52-.02-.02,1.26-1.51-.9-3.12Z"/>
      </g>
      <g>
        <path class="cls-8" d="M13.99,38.5s-3.77-1.65-1.15-5.74c0,0,.65-1.24,2.84-1.91,0,0,2.29,1.61,7.33-.4,0,0,1.31-.64,2.48-1.89,0,0,3.6-1.4,3.9,1.84,0,0-.39,3.36-8.77,4.36,0,0-5.54,.46-6.63,3.73Z"/>
        <path class="cls-5" d="M16.48,39.88l2.84,6.81c-.73,.07-1.43-.4-1.43-.4-1.03-1.3-3-6.56-3.24-7.24,.36,.24,.97,.57,1.84,.84Zm.29,.08l2.87,6.73s.39,.16,1.17,.09l-2.03-6.47c-.78-.05-1.45-.18-2.01-.35Zm2.38,.37l1.88,6.38s.93,.13,1.38-.05l-1.47-6.36c-.64,.05-1.23,.05-1.79,.03Zm2.07-.05l1.49,6.3s.8,.09,1.3-.17l-1.05-6.41c-.61,.13-1.19,.22-1.75,.27Zm2.14-.34l1.02,6.43s.56,.15,1.09-.16l-.66-6.62c-.51,.13-.98,.24-1.44,.35Zm1.72-.44h-.03s.65,6.65,.65,6.65c0,0,.46,.17,1.37-.5l-.26-6.79c-.98,.44-1.74,.63-1.74,.63Zm2.09-.79l.2,6.86s.62-.06,1.19-.67l.03-7.04c-.48,.34-.96,.61-1.41,.85Zm1.87-1.2l-.26,7.23s.38-.04,.87-.73l.66-7.82c-.37,.51-.82,.95-1.28,1.32Z"/>
        <path class="cls-20" d="M15.84,30.62c-.35-3.13,2.35-3.38,2.35-3.38,1.95-.1,2.16-1.15,2.16-1.15,.45-.92-1.02-1.79-1.02-1.79,1.22-.63,3.12,.33,3.12,.33,3.67,1.41,3,3.72,3,3.72-4.82,4.23-9.61,2.28-9.61,2.28Zm13.84,.13s-.92,3.29-8,4.13c-7.08,.83-7.45,3.83-7.45,3.83,0,0,.14,.14,.43,.33,.36,.24,.97,.57,1.82,.84,.09,.03,.2,.05,.29,.08,.58,.16,1.25,.28,2.02,.34,.12,0,.23,.02,.37,.02,.54,.02,1.14,.02,1.79-.03,.1,0,.18-.02,.29-.02,.54-.05,1.13-.14,1.75-.26,.13-.02,.25-.04,.38-.08,.46-.09,.94-.22,1.44-.36,.08-.03,.18-.05,.26-.07h.03s.75-.18,1.74-.64c.11-.05,.21-.11,.33-.16,.45-.22,.94-.51,1.41-.85,.15-.11,.31-.23,.46-.35,.46-.37,.9-.81,1.28-1.32,.21-.28,.42-.59,.59-.93,0,0,1.54-2.72-1.22-4.5Z"/>
      </g>
      <g>
        <path class="cls-17" d="M29.4,35.03s-.29-11.6,7.7-11.17c8,.42,8.79,5.93,9.31,10.23,0,0,.25,2.58,.86,4.46,.62,1.87-1.01,3.69-3.52,2.1,0,0-1.32-1.1-3.19,.89-1.85,1.99-4.41-.3-4.41-.3,0,0-1.09-.8-3.98,.22s-3.29,.01-2.78-6.43Z"/>
        <path class="cls-4" d="M36.92,30.02c.05,.91-.53,1.68-1.29,1.72s-1.42-.66-1.47-1.57,.53-1.68,1.29-1.72,1.42,.66,1.47,1.57Zm2.34-1.78c-.76,.04-1.34,.81-1.29,1.72s.71,1.61,1.47,1.57,1.34-.81,1.29-1.72c-.05-.91-.71-1.61-1.47-1.57Z"/>
      </g>
      <g>
        <path class="cls-13" d="M19.32,40.32c-.28,.15-.6,.24-.92,.24-.29,0-.56-.07-.82-.18h-.14c-1.1,0-2.02-.92-2.24-2.16-.39-.18-.72-.49-.93-.88-.57-.35-.97-1.04-.97-1.84,0-.11,.01-.22,.03-.33-.06-.25-.1-.51-.1-.79,0-.14,.01-.26,.03-.4-.79-.19-1.63-.29-2.49-.29-5.76,0-10.44,4.68-10.44,10.44s4.68,10.44,10.44,10.44,10.44-4.68,10.44-10.44c0-1.31-.24-2.56-.68-3.7-.15,.04-.31,.06-.46,.06-.26,0-.5-.06-.74-.15Zm-8.6,7.57c-2.03,0-3.69-1.64-3.69-3.69s1.64-3.69,3.69-3.69,3.69,1.64,3.69,3.69-1.64,3.69-3.69,3.69Z"/>
        <path class="cls-1" d="M17.58,40.37h-.14c-1.1,0-2.02-.92-2.24-2.16-.39-.18-.72-.49-.93-.88-.57-.35-.97-1.04-.97-1.84,0-.11,.01-.22,.03-.33-.01-.06-.03-.1-.03-.15-.19,0-.4,0-.64,.03-2,.22-2.57-.24-2.57-.24-1.8-1.07-3.12,.78-3.67,1.38-.54,.58-2.41,1.24-2.41,1.24-1.54,.33-1.46,1.95-1.46,1.95-.11,1.35-.72,2.41-.72,2.41,0,0-1.34,1.09-.7,2.6,.64,1.5,.26,1.91,.26,1.91,0,0-.57,1.64,.78,2.2,1.35,.57,1.27,1.96,1.27,1.96-.03,1.18,1.84,1.42,1.84,1.42,0,0,2.18,.58,3.3,1.57s2.66,.26,2.66,.26c0,0,1.34-.85,2.62-.46,1.29,.39,1.8-.43,2.07-1.22,.28-.78,1.46-1.27,1.85-1.42,.39-.15,.88-.65,.88-.65,.24-.38,.13-1.42,.13-1.42-.08-.46,.22-1.18,.58-1.38,.38-.19,.74-.89,.74-.89,0,0,.11-1.03-.31-1.61s-.26-1.22-.07-1.7c.19-.49,.22-1.27,.22-1.27,.06-.46-.33-.88-.83-1.24-.22,.08-.46,.14-.71,.14-.28-.03-.56-.1-.81-.21Zm-6.86,7.51c-2.03,0-3.69-1.64-3.69-3.69s1.64-3.69,3.69-3.69,3.69,1.64,3.69,3.69-1.64,3.69-3.69,3.69Z"/>
        <path class="cls-7" d="M13.86,39.41c.04,.13-.03,.26-.15,.31l-1.28,.45c-.13,.04-.26-.03-.31-.15h0c-.04-.13,.03-.26,.15-.31l1.28-.45c.13-.04,.26,.03,.31,.15Zm4.44,6.36l-1.29-.42c-.13-.04-.26,.03-.31,.15-.04,.13,.03,.26,.15,.31l1.29,.42c.13,.04,.26-.03,.31-.15,.04-.14-.03-.26-.15-.31Zm-11.35-4.72l-1.32-.26c-.13-.03-.25,.06-.28,.19-.03,.13,.06,.25,.19,.28l1.32,.26c.13,.03,.25-.06,.28-.19,.01-.13-.07-.25-.19-.28Zm3.06,9.85c-.07-.11-.21-.15-.32-.1s-.15,.21-.1,.32l.65,1.18c.07,.11,.21,.15,.32,.1s.15-.21,.1-.32l-.65-1.18Z"/>
        <path class="cls-30" d="M11.33,37.76c.07,.11,.01,.26-.1,.32h0c-.11,.07-.26,.01-.32-.1l-.65-1.18c-.07-.11-.01-.26,.1-.32,.11-.07,.26-.01,.32,.1l.65,1.18Zm4.8,4.26c-.08-.1-.24-.1-.33-.01l-.99,.92c-.1,.08-.1,.24-.01,.33s.24,.1,.33,.01l.99-.92c.11-.08,.11-.24,.01-.33Zm-11.02-3.16c.01-.13-.07-.25-.19-.28l-1.34-.21c-.13-.01-.25,.07-.28,.19-.01,.13,.07,.25,.19,.28l1.34,.21c.14,.03,.25-.07,.28-.19Zm.32,6.62c-.08-.1-.24-.13-.33-.04-.1,.08-.13,.24-.04,.33l.83,1.07c.08,.1,.24,.13,.33,.04,.1-.08,.13-.24,.04-.33l-.83-1.07Zm11.13,3.85l-.32-1.31c-.03-.13-.17-.21-.29-.18s-.21,.17-.18,.29l.32,1.31c.03,.13,.17,.21,.29,.18,.14-.03,.21-.17,.18-.29Z"/>
        <path class="cls-25" d="M7.17,36.71l-.17,1.35c-.01,.13-.14,.22-.26,.21s-.22-.14-.21-.26l.17-1.35c.01-.13,.14-.22,.26-.21,.13,.01,.22,.14,.21,.26Zm6.36-.17c-.08-.15-.14-.32-.18-.49h-.29c-.13-.03-.25,.08-.25,.21s.1,.25,.22,.25l.5,.03Zm5.18,4.51c0-.13-.13-.24-.25-.22-.13,0-.24,.13-.22,.25l.07,1.35c0,.13,.13,.24,.25,.22,.13,0,.24-.13,.22-.25l-.07-1.35Zm-15.21,5.18c-.13-.06-.26-.01-.32,.11l-.6,1.21c-.06,.13-.01,.26,.11,.32,.13,.06,.26,.01,.32-.11l.6-1.21c.06-.11,0-.26-.11-.32Zm5.04,1.85c-.13-.06-.26,0-.32,.13l-.56,1.24c-.06,.13,0,.26,.13,.32s.26,0,.32-.13l.56-1.24c.06-.13,0-.28-.13-.32Zm5.77,3.33l-1.24,.56c-.13,.06-.18,.19-.13,.32s.19,.18,.32,.13l1.24-.56c.13-.06,.18-.19,.13-.32s-.19-.18-.32-.13Z"/>
        <path class="cls-14" d="M8.78,39.33c.03,.13-.04,.26-.18,.29-.13,.03-.26-.04-.29-.18l-.32-1.31c-.03-.13,.04-.26,.18-.29,.13-.03,.26,.04,.29,.18l.32,1.31Zm6.61-.43l-.29,.53c-.06,.11-.01,.26,.1,.32,.11,.06,.26,.01,.32-.1l.14-.26c-.08-.14-.18-.31-.26-.49Zm-12.89,3.62c-.13-.01-.25,.07-.26,.21l-.18,1.34c-.01,.13,.07,.25,.21,.26,.13,.01,.25-.07,.26-.21l.18-1.34c.01-.13-.08-.24-.21-.26Zm2.69,6.87c-.03-.13-.17-.21-.29-.18s-.21,.17-.18,.29l.32,1.31c.03,.13,.17,.21,.29,.18s.21-.17,.18-.29l-.32-1.31Zm8.14-.95c-.11-.06-.26-.01-.32,.11l-.61,1.21c-.06,.11-.01,.26,.11,.32,.11,.06,.26,.01,.32-.11l.61-1.21c.04-.11,0-.26-.11-.32Z"/>
      </g>
      <g>
        <path class="cls-27" d="M48.35,49.57c.05,.13,.1,.34,.06,.63-.03,.21-.1,.36-.15,.47-8.78,1.93-17.56,3.89-26.35,5.82v-.02c-.09-.12-.19-.28-.29-.46l-1.33,.3c-.17-.22-.36-.54-.5-.92,0,0-.1-.34-.17-.68-1.32-5.95,3.65-12.1,11.1-13.76,2.19-.49,4.33-.52,6.3-.2,1.72,.1,3.34,.47,4.79,1.07,3.27,1.35,5.7,3.84,6.42,7.07,.08,.36,.13,.69,.13,.69Z"/>
        <path class="cls-18" d="M22.5,47.8c.43-.73,.98-1.43,1.57-2.08,.12-.46,.78-2.97,2.43-3.13,1.84-.17,1.89-.2,2.32-.87,.42-.69,.46-1.72,1.79-1.18,1.31,.53,3.02,.11,3.14,.06,.13-.03,.83-.46,1.59,.15,2.31-.1,4.53,.29,6.44,1.08-.52-1.36-1.83-1.77-1.83-1.77,0,0-1.58-.37-2.54-1.03-.94-.65-3.33,.38-3.33,.38,0,0-1.56,.35-2.09,.11-.51-.24-1.66-.39-1.66-.39,0,0-1.01,.12-1.76,1.25s-2.64,1.21-2.64,1.21c0,0-1.49,.19-2.14,1.77s-1.73,2.7-1.73,2.7c-1.36,1.04-1.66,2.48-1.6,3.67,.15-.21,.37-.42,.64-.62,.5-.37,.97-.83,1.39-1.29Z"/>
        <path class="cls-16" d="M35.35,40.74c-.99,.04-2,.17-3.02,.39-3.38,.75-6.24,2.43-8.23,4.58,.12-.46,.78-2.97,2.43-3.13,1.84-.17,1.89-.2,2.32-.87,.42-.69,.46-1.72,1.79-1.18s3.02,.11,3.14,.06c.11-.04,.81-.46,1.57,.15Zm-14.24,8.35c-.27,.2-.49,.41-.64,.62-.76,.99-.21,1.94-.17,2.71,.03,.93-.32,1.87-.32,1.87-.54,2.14,.93,2.4,.93,2.4l.99-.22c-.17-.22-.35-.52-.48-.91,0,0-.1-.34-.17-.68-.54-2.43-.03-4.9,1.28-7.09-.44,.46-.91,.92-1.41,1.29Z"/>
      </g>
    </g>
  </g>
</svg>