<?xml version="1.0" encoding="UTF-8"?>
<svg id="Layer_2" data-name="Layer 2" xmlns="http://www.w3.org/2000/svg" viewBox="0 0 150 91.4">
  <defs>
    <style>
      .cls-1 {
        fill: #a7cc89;
      }

      .cls-2 {
        fill: #ded16d;
      }

      .cls-3 {
        fill: #e677ae;
      }

      .cls-4 {
        fill: #c4cbb7;
      }

      .cls-5 {
        fill: #86c4d8;
      }

      .cls-6 {
        fill: #a592c5;
      }

      .cls-7 {
        fill: #f37f75;
      }

      .cls-8 {
        fill: #7797ce;
      }
    </style>
  </defs>
  <g id="Layer_1-2" data-name="Layer 1">
    <g>
      <path class="cls-3" d="M24.3,51C26.8,25.7,48.2,5.9,74.1,5.9s48.7,21.1,50,47.6c1.2-.8,2.6-1.3,4.1-1.3,.6,0,1.1,.1,1.7,.2C128.1,23.2,103.8,0,74.1,0S21.4,22,18.5,50.1c.5-.1,1-.1,1.5-.1,1.5,.1,3,.4,4.3,1Z"/>
      <path class="cls-7" d="M74.1,5.9c-26,0-47.3,19.8-49.8,45.1h0c1.4-3.2,4.1-5.5,7.5-6,4.9-18.8,22-32.7,42.4-32.7,19.1,0,35.4,12.3,41.4,29.4,4.8,1.2,8.3,5.8,8.3,11.3v.9c.1-.1,.3-.2,.4-.3-1.5-26.6-23.4-47.7-50.2-47.7Z"/>
      <path class="cls-2" d="M74.1,12.2c-20.4,0-37.5,13.9-42.4,32.7,.5-.1,1-.1,1.5-.1,1.6,0,3,.4,4.3,1.1,4.4-16.1,19.1-27.8,36.6-27.8,16,0,29.7,9.9,35.3,24,1.1-.5,2.4-.7,3.7-.7,.8,0,1.6,.1,2.4,.3-6-17.2-22.3-29.5-41.4-29.5Z"/>
      <path class="cls-1" d="M74.1,18.1c-17.5,0-32.2,11.8-36.6,27.8,2.2,1.1,3.9,3.1,4.8,5.6,.2-.2,.5-.4,.7-.6,2.4-15,15.4-26.4,31.1-26.4,14.1,0,26,9.2,30.1,22,1.3-2,3.1-3.6,5.2-4.5-5.6-14-19.3-23.9-35.3-23.9Z"/>
      <path class="cls-5" d="M74.1,24.5c-15.7,0-28.7,11.4-31.1,26.4,1.3-1,3-1.6,4.7-1.6,.8,0,1.5,.1,2.2,.3,2.8-10.7,12.6-18.6,24.2-18.6,12.7,0,23.1,9.4,24.8,21.6,1.2,0,2.4,.2,3.5,.6v-.3c0-2.4,.7-4.6,1.8-6.4-4.1-12.8-16-22-30.1-22Z"/>
      <path class="cls-8" d="M74.1,31c-11.6,0-21.4,7.9-24.2,18.6,1.8,.6,3.4,1.8,4.5,3.4,1.4-9.6,9.7-17,19.7-17s18.8,7.8,19.8,17.9c1.4-.8,3.1-1.3,4.9-1.3h0c-1.6-12.2-12-21.6-24.7-21.6Z"/>
      <path class="cls-6" d="M74.1,36.1c-10,0-18.3,7.4-19.7,17,.5,.8,1,1.7,1.3,2.7,1.6-1,3.5-1.7,5.6-2.2,1.2-6.1,6.5-10.6,12.9-10.6s11.4,4.3,12.8,10c2.2,.2,4.3,.8,6.1,1.7,.3-.2,.6-.5,1-.7-1.2-10.1-9.7-17.9-20-17.9Z"/>
      <path class="cls-4" d="M138.9,60.6c-1,0-2,.1-2.9,.4v-.2c0-4.1-2.6-7.5-6.1-8.4-.5-.1-1.1-.2-1.7-.2-1.5,0-2.9,.5-4.1,1.3-.1,.1-.3,.2-.4,.3v-.9c0-5.5-3.5-10.1-8.3-11.3-.8-.2-1.6-.3-2.4-.3-1.3,0-2.5,.2-3.7,.7-2.2,.9-4,2.4-5.2,4.5-1.1,1.8-1.8,4-1.8,6.4v.3c-1.1-.4-2.3-.6-3.5-.6h0c-1.8,0-3.5,.5-4.9,1.3-.3,.2-.7,.4-1,.7-1.8-.9-3.9-1.4-6.1-1.7-.7-.1-1.4-.1-2.1-.1-1,0-1.9,.1-2.8,.2-1.2-2.2-3.5-3.7-6.2-3.7s-5.3,1.6-6.4,4c-1.1-.2-2.3-.3-3.5-.3-1.6,0-3.1,.2-4.6,.5-2.1,.5-3.9,1.2-5.6,2.2-.3-1-.7-1.9-1.3-2.7-1.1-1.6-2.7-2.8-4.5-3.4-.7-.2-1.5-.3-2.2-.3-1.7,0-3.4,.6-4.7,1.6-.2,.2-.5,.4-.7,.6-.9-2.4-2.6-4.4-4.8-5.6-1.3-.7-2.8-1.1-4.3-1.1-.5,0-1,0-1.5,.1-3.3,.5-6.1,2.9-7.5,6h0c-1.3-.6-2.8-.9-4.3-.9-.5,0-1,0-1.5,.1-5,.7-8.9,4.8-8.9,9.8,0,.7,.1,1.4,.2,2.1-5.7,2.5-9.6,7.5-9.6,13.2,0,8.3,8.1,15,18,15,2.2,0,4.3-.3,6.2-.9,1.9,1.3,4.4,2.1,7.2,2.1,3.5,0,6.6-1.2,8.5-3.2,1.9,1.8,4.4,3,7.2,3,3.6,0,6.9-1.9,8.7-4.9,2.6,1.6,5.8,2.6,9.3,2.6,3.2,0,6.2-.8,8.7-2.3,2.7,2.8,6.6,4.6,10.9,4.6,5.1,0,9.6-2.5,12.4-6.3,1,.4,2.2,.7,3.5,.7,1.6,0,3.1-.4,4.3-1.1,3.2,2.9,8,4.8,13.4,4.8,7.3,0,13.5-3.4,16.1-8.2,1.3,.5,2.8,.8,4.3,.8,6.2,0,11.3-4.8,11.3-10.7s-4.8-10.6-11.1-10.6Zm-101.6,16.4c-.1-.1-.3-.1-.4-.2,.1,0,.1-.1,.2-.1s.2,0,.3,.1c-.1,0-.1,.1-.1,.2Z"/>
    </g>
  </g>
</svg>