<?xml version="1.0" encoding="UTF-8"?>
<svg id="Layer_2" data-name="Layer 2" xmlns="http://www.w3.org/2000/svg" viewBox="0 0 163.5 150.03">
  <defs>
    <style>
      .cls-1 {
        fill: #f1ceb0;
      }

      .cls-2 {
        fill: #a3cc88;
      }

      .cls-3 {
        fill: #3c2822;
      }

      .cls-4 {
        fill: #af8b75;
      }
    </style>
  </defs>
  <g id="Layer_1-2" data-name="Layer 1">
    <g>
      <path class="cls-4" d="M130,93.5c.4-2.6,.2-5.4-.5-8.5-.7-4.1-2.3-9.3-5.5-14.6-.7-1.1-1.4-2.2-2.2-3.3h0c-.8-1.4-1.6-2.8-2.4-4.2,0,0,12.1-20.3-.6-38.6C106.1,6.1,89,3.9,89,3.9h-1.9l-8.1-3.9,2.3,4.7-9.3-3,2.2,3.2S26.1,21,47.1,63.7c0,0-1,1.8-2.4,4.5,0,0-.3,.4-.9,1.2-2.4,3.4-9,13.8-7.8,22.8,.1,.9,.4,1.8,.7,2.7,.1,.4,.1,.7,.2,1.1,.4,1.4,1,2.6,2.1,3.4,.3,.2,.6,.4,.9,.6,0,0,.1,0,.2,.1,.2,.1,.3,.1,.5,.2,1.2,.6,2.3,1.1,3.4,1.4,.4,.1,.8,.2,1.2,.3,1.3,.3,2.6,.4,3.9,.2,.8-.1,1.5-.3,2.3-.7,0,0-2.6,28.3,10.3,36.8,1.3,.8,2.7,1.5,4.3,1.9,.2,.1,.4,.1,.6,.2h.2c.5,.1,2,.2,3.7-.1,.3-.1,.6-.1,.9-.2,.9-.3,1.8-.7,2.6-1.3,1.7-1.3,2.9-3.6,2.9-7.6-.2-11.3,1.3-23.2,6.5-22,5.1,1.2,6.2,4.5,6.4,22.2,0,0-.4,5.2,2.9,7.8,.6,.5,1.3,.8,2.2,1.1,.4,.1,.7,.2,1.1,.2,.7,.1,1.4,.1,2.2,0,.5,0,1-.1,1.4-.1,.3,0,.6-.1,.9-.1,1.3-.1,2.6-.3,3.8-.7,6.1-1.9,10.8-8.5,12.7-37,.2,.1,.4,.1,.6,.2,1.3,.3,2.6,.4,4,0,.4-.1,.7-.2,1.1-.4,.1-.1,.3-.1,.4-.2,1.1-.5,2-1.1,2.8-1.8,.5-.4,1-.8,1.4-1.3,.9-1,1.6-2.1,2-3.4,.2-.7,.4-1.3,.6-2.1h0s.1,0,.1-.1Z"/>
      <path class="cls-1" d="M112.8,63.6s-2.9,4.3-9.2,7.8c-4.9,2.7-11.9,4.8-21.2,4.1-8.7-.7-14.9-2.7-19.2-4.8-6.4-3.1-8.7-6.4-8.7-6.4,0,0,25.8-8.7,17.9-23,0,0-4.3-10.4-24.8,3.4,0,0-.8-14.3,12.3-19.2,13.1-4.9,23.5,3.1,23.5,3.1,0,0,17.4-8.9,27.8-.5s8.2,16.6,8.2,16.6c0,0-20.6-13.7-26.5-2.6-5.8,11,15.1,20.9,19.9,21.5Zm-45.9,76.8c.5,2.7,1.6,7.4,3.5,7.7,1.4,.2,1-3.9,.3-7.7-1.7,.3-3.2,.1-3.8,0Zm-5.2-2.1c.5,2.5,1.8,8.7,3.7,9.1,1.5,.3,1.3-3.6,.6-7.2-1.6-.4-3-1.1-4.3-1.9Zm-21.1-38.1c-1,2.1-3.5,7.5-1.7,8.9,2,1.5,3.6-2.5,5.1-7.5-1-.3-2.2-.8-3.4-1.4Zm30.9,39.9c.3,2,1.1,4.8,3.1,5.5,1.8,.6,.7-3.3-.5-6.8-.8,.7-1.7,1.1-2.6,1.3Zm-26.3-38.2c-.8,2.2-2.1,6.4-.9,7.5,1.3,1.2,3.7-3.5,4.8-7.3-1.2,.2-2.5,.1-3.9-.2Zm-8.2-6c-1.4,2.3-4.4,7.9-2.5,10.1,1.6,1.9,3.5-3.1,4.5-6.7-.9-.8-1.6-2-2-3.4Zm80.6,6.9c1.2,3.7,3.4,7.8,4.6,6.7,1.1-1,.1-4.4-.6-6.7-1.4,.4-2.7,.4-4,0Zm5.5-.6c-.1,.1-.3,.1-.4,.2,1.4,4.6,3,8.2,4.8,6.8,1.8-1.4-.5-6.5-1.6-8.7-.7,.6-1.7,1.2-2.8,1.7Zm6.3-6.4c-.5,1.2-1.1,2.4-2,3.4,1.1,3.6,3,8.8,4.6,6.9,2-2.3-1.2-8.1-2.6-10.3Zm-27,52.6c1.6-.7,1.9-5.9,2-8.8-1.2,.4-2.5,.6-3.8,.7-.3,4.1,.2,8.8,1.8,8.1Zm-4.2-7.9c-.8,.1-1.5,0-2.2,0-.1,4.3,0,10,1.7,9.5,2.2-.7,2.1-7.5,2-9.5h-1.5Zm-3.3-.2c-.9-.2-1.6-.6-2.2-1.1-.8,3.8-1.8,10.3,.3,9.1,2.9-1.6,1.9-8,1.9-8h0Z"/>
      <path class="cls-3" d="M57.2,47.7c0-3.5,2.4-6.3,5.4-6.3s5.4,2.8,5.4,6.3-2.4,6.3-5.4,6.3c-3,0-5.4-2.8-5.4-6.3Zm46.4,6.3c3,0,5.4-2.8,5.4-6.3s-2.4-6.3-5.4-6.3-5.4,2.8-5.4,6.3,2.4,6.3,5.4,6.3Zm-29.3,6.1c.7,.7,4,3.6,9.1,3.6s8.4-2.9,9.1-3.6c.2,0,.4-.2,.4-.4v-.8c0-.1,0-.2-.1-.3-.1-.1-.2-.1-.3-.1-.6,.6-3.9,3.9-9.2,3.9s-8.5-3.3-9.1-3.9c-.2,0-.4,.2-.4,.4v.8c0,.1,0,.2,.1,.3,.3,.1,.4,.1,.4,.1Zm9-3.2c1.6,0,4.4-1,4.6-3.8s-3.8-2.6-6.9-2.3c-3.1,.3-2,2.9-2,2.9,.5,2.3,2.6,3.2,4.3,3.2Zm74.8,8.9c-10.6,2.3-22.2,3.8-34.1,4.6,5.9,9.8,6.2,19,6.1,22.2,18.5-2.3,31.2-4.9,31.2-4.9,6.4-12.4-3.2-21.9-3.2-21.9Zm-148.1,0c-12.4,20.8,6.4,20.4,6.4,20.4,6,2.5,12.7,4.5,19.8,6-1.3-9,5.4-19.4,7.8-22.8-20.3-1.7-34-3.6-34-3.6Zm55.8,9.7s-4.2,12.1-8.7,19.5c17.4,1.5,35.8,.9,52.2-.4-3.8-6.4-8.8-19.1-8.8-19.1-17.9,6.7-34.7,0-34.7,0Z"/>
      <path class="cls-2" d="M149.5,70.1c-.9,.2-1.7,.2-2.4,.1,0,.1-.1,.2-.1,.3-1.8,4.5-6.1,3.4-6.1,3.4-12.9-2.5-11.3-16.5-11.3-16.5,5.4,.3,9.5,1.6,12.4,3.5,.2-8.2,8.6-12.6,8.6-12.6,7.1,11.8,3.6,20.8-1.1,21.8ZM15.8,81.7c-4.2-2.5-12.9,1.6-15.8,15,0,0,13.5,3.9,18.1-8.4,0,.1,1.9-4-2.3-6.6Z"/>
    </g>
  </g>
</svg>